<svg width="33" height="33" viewBox="0 0 33 33" fill="none" xmlns="http://www.w3.org/2000/svg">
<path d="M8.44078 15.4172C8.3325 15.3089 1.74024 13.8574 1.74024 13.8574C1.74024 13.8574 1.3561 14.4736 1.46696 14.8371C1.52883 15.0408 2.96743 16.714 4.44727 18.2531C5.61516 19.47 6.94289 20.7075 7.13625 21.4139C7.43274 22.5018 7.46368 24.2472 7.46368 24.2472L3.16594 26.8718C3.16594 26.8718 3.69188 29.5479 7.10016 29.4422C10.2841 29.3442 10.4491 25.972 11.4598 25.954C11.6299 25.9514 11.8645 25.8921 12.2848 26.3433C13.3263 27.4622 15.2754 29.6226 15.9277 30.2775C16.7991 31.1489 17.4178 32.0203 17.7452 31.9842C18.0727 31.9481 20.8338 29.4783 21.6331 28.7151C22.4323 27.952 23.1593 27.0445 23.1593 26.2814C23.1593 25.5183 22.0327 24.9382 22.0327 24.9382L15.8194 25.6652L8.44078 15.4172ZM26.7145 5.57388C26.8228 5.57388 29.584 4.19458 29.584 4.19458C29.584 4.19458 31.002 7.06403 29.1844 8.69856C27.3668 10.3331 26.9672 9.40755 26.0958 10.3692C25.4306 11.104 25.7684 12.6225 25.7684 12.6225L31.1695 17.8148C31.1695 17.8148 31.4712 18.364 31.2546 18.7636C31.0999 19.0472 29.2823 21.0813 27.8747 22.5431C27.2405 23.2005 26.3562 23.4222 25.8766 23.3062C24.6778 23.0149 24.4973 22.0713 24.2782 20.4007C24.0591 18.73 22.6205 18.7558 22.0971 18.8383C20.9937 19.0136 20.2744 19.6582 20.2744 19.6582C20.2744 19.6582 13.7775 11.8284 13.8497 11.6093C13.9219 11.3901 14.1771 9.7556 13.414 9.06724C12.6509 8.3763 11.1272 8.02567 10.5445 7.62606C9.96446 7.22645 9.88711 6.46591 9.99282 5.72856C10.0985 4.99122 14.7959 4.99895 14.7959 4.99895C14.7959 4.99895 22.8963 9.46685 22.935 9.28638C22.9711 9.0956 26.7145 5.57388 26.7145 5.57388Z" fill="#B0B0AF"/>
<path d="M22.7184 6.44279C22.9144 5.72607 22.6901 3.96521 24.0591 2.7999C25.428 1.63459 27.5576 1.77896 28.8389 3.00357C30.1202 4.22818 30.3265 6.53045 28.8105 8.04639C27.2946 9.56232 26.5959 8.7167 25.7503 9.53397C24.9047 10.3512 25.0516 11.0215 25.575 11.5165C26.1009 12.0115 31.3191 17.4643 31.1721 17.8123C31.0252 18.1604 27.4699 22.1848 26.8873 22.4762C26.3046 22.7675 25.2837 22.7391 25.08 21.7775C24.8763 20.8158 25.227 18.8926 23.7677 18.395C22.3111 17.9 21.6691 18.3073 20.2409 19.8233C18.8126 21.3392 18.1706 22.9995 19.3359 23.8451C20.5013 24.6908 21.9605 24.3401 22.5431 25.3327C23.1258 26.3253 22.2518 27.2276 20.7075 28.6559C19.1632 30.0842 17.967 31.2495 17.7633 31.1051C17.5596 30.9582 13.1278 26.266 12.6921 25.771C12.2538 25.276 11.4082 24.8377 10.5935 25.5957C9.77625 26.3537 9.63188 28.8312 6.19266 28.8312C2.75344 28.8312 2.34094 25.1007 3.56555 23.5564C4.79016 22.0121 7.49977 21.8651 7.55906 20.8158C7.58484 20.3337 6.09727 19.0344 4.7618 17.6396C3.19172 15.9973 1.7325 14.2571 1.67063 14.0534C1.55461 13.6744 4.93453 10.3512 5.57649 9.88459C6.21844 9.41795 6.94547 9.70928 7.29609 10.0883C7.64672 10.4672 7.73438 11.6326 8.0257 12.3029C8.31703 12.9732 9.68602 15.889 12.9809 12.5658C16.2448 9.271 13.1562 7.84272 12.1069 7.55139C11.0576 7.26006 10.3022 7.16467 10.0083 6.09475C9.77625 5.24912 11.0576 4.25912 12.3982 2.97521C13.7388 1.69131 14.5252 1.021 14.8758 1.021C15.2264 1.021 19.9186 6.06381 20.5322 6.64646C21.1458 7.22912 21.5222 7.37607 21.9605 7.25748C22.3962 7.14404 22.6308 6.76506 22.7184 6.44279Z" fill="url(#paint0_radial_61_1677)"/>
<defs>
<radialGradient id="paint0_radial_61_1677" cx="0" cy="0" r="1" gradientUnits="userSpaceOnUse" gradientTransform="translate(16.0287 -7.29604) scale(30.7377 30.7377)">
<stop offset="0.508" stop-color="#B7D118"/>
<stop offset="0.572" stop-color="#B2D019"/>
<stop offset="0.643" stop-color="#A5CD1D"/>
<stop offset="0.717" stop-color="#8FC922"/>
<stop offset="0.793" stop-color="#70C22A"/>
<stop offset="0.871" stop-color="#48BA34"/>
<stop offset="0.949" stop-color="#18B040"/>
<stop offset="0.981" stop-color="#02AB46"/>
</radialGradient>
</defs>
</svg>
