<svg width="393" height="439" viewBox="0 0 393 439" fill="none" xmlns="http://www.w3.org/2000/svg">
<path d="M-186.726 276.919C-158.869 285.395 -95.3106 299.039 -63.9258 285.804C-32.5411 272.569 -10.8383 223.745 1.93181 201.611C13.3904 178.598 40.1812 136.953 60.3963 131.566C61.2597 130.997 79.3696 122.788 76.7144 135.674C76.5668 136.39 70.8788 153.129 57.3635 135.418C43.8482 117.708 59.1856 68.6275 75.0003 60.6919C90.815 52.7563 140.468 43.584 171.837 72.4366C176.974 76.4803 188.953 87.1579 190.194 95.6228C191.435 104.088 186.992 103.919 174.275 96.8204C161.559 89.7222 135.303 83.3615 125.994 92.0956C116.742 100.775 114.496 97.1894 105.584 125.951C98.4551 148.96 88.2889 137.451 87.9387 128.285C87.9184 123.555 89.7227 112.384 97.1021 105.546C104.481 98.708 111.209 111.935 113.65 119.404C115.277 127.202 120.709 138.023 129.421 118.922C140.312 95.0459 136.459 92.0132 164.652 100.061C187.009 106.444 166.411 131.497 152.996 143.541C152.769 143.745 152.651 144.028 152.673 144.333C153.296 153.03 158.03 169.563 158.196 174.853C158.288 177.78 151.125 175.09 145.175 172.478C144.542 172.2 143.816 172.627 143.702 173.31C143.364 175.33 142.579 177.877 141.119 178.051C138.824 178.324 127.812 173.816 124.211 176.805C120.61 179.795 131.608 184.163 132.758 186.03C134.436 188.752 136.694 199.527 120.775 200.725C104.856 201.923 87.2695 189.481 80.7279 185.01C75.3305 181.321 22.1056 154.411 -17.5189 169.244C-55.0445 183.29 -78.9252 202.86 -91.694 253.962C-98.9979 283.193 -49.6597 289.614 -27.4586 300.782C5.67533 317.449 87.1671 334.849 102.249 305.12C117.33 275.391 119.443 232.541 89.271 219.607C59.0993 206.674 16.1286 299.315 71.4825 320.423C126.836 341.531 175.348 344.392 219.252 337.767" stroke="#FF7562" stroke-width="3"/>
<path d="M491.165 426.609C463.918 430.468 421.322 430.629 420.165 415C418.718 395.464 406.529 322.416 367.466 318.075C364.571 317.566 353.72 314.672 337.807 306.498C321.669 298.208 286.447 265.978 279.937 262.36C273.426 258.743 269.086 273.214 277.766 279.726C286.447 286.238 312.487 306.498 315.382 313.01C317.46 317.685 312.891 338.758 315.382 353.529C317.353 365.22 341.423 409.244 374.699 370.895C401.32 340.216 365.537 292.027 344.317 271.767C339.494 264.772 331.875 248.034 339.977 237.036C350.104 223.288 347.211 194.346 336.36 182.045C325.509 169.744 278.489 154.55 262.574 166.127C246.66 177.704 229.299 176.257 248.107 196.516C263.153 212.724 263.297 225.674 264.02 231.247C264.743 240.412 268.65 257.44 278.488 252.231C290.785 245.719 294.402 215.544 278.488 226.182C270.531 232.694 257.51 244.995 258.233 234.865C258.956 224.735 256.065 217.5 248.107 214.605C240.148 211.711 232.914 195.793 232.914 191.451C232.914 187.174 216.059 194.136 223.869 225.49C224.095 226.4 224.062 227.386 223.76 228.274C220.105 239.048 222.562 237.204 217 241.377C213.216 244.216 212.396 248.215 212.486 250.766C212.518 251.7 213.145 252.473 213.981 252.892L217 254.401L217.788 254.927C218.652 255.503 219.17 256.472 219.17 257.51V261.162C219.17 261.594 219.381 262 219.734 262.248V262.248C219.84 262.323 219.954 262.38 220.077 262.422C223.018 263.423 228.418 265.725 227.851 267.425C227.128 269.596 219.894 271.558 221.341 278.07C222.787 284.582 225.681 296.159 236.532 293.265C247.382 290.371 261.078 285.125 266.19 285.306C272.152 285.517 275.88 285.983 269.807 292.027C264.679 297.13 234.362 294.921 229.298 306.498C224.234 318.075 218.447 326.034 219.17 345.57C219.894 365.106 219.17 396.434 209.766 409.244C202.997 418.465 190.235 441.08 128.747 427.333C67.2595 413.585 80.2804 396.22 35.4305 401.284C14.1505 403.712 -34.0948 414.254 -56.835 437" stroke="#FF7562" stroke-width="3.10474"/>
<path opacity="0.8" d="M366.302 155.926V120.086C366.302 115.491 370.861 114.113 373.141 112.275C375.42 110.437 405.511 102.625 416.909 95.7332C428.307 88.8409 428.763 70.9209 420.556 54.8389C413.519 41.0487 410.84 41.4485 399.009 38.0763C394.548 36.8048 389.901 36.0987 385.287 36.5847C335.698 41.8084 292.117 69.0757 285.148 78.7322C278.031 88.5949 281.764 99.3324 286.184 112.652C286.405 113.316 286.694 113.962 287.098 114.533C296.516 127.839 324.655 126.49 338.491 125.14C349.797 124.038 356.879 142.448 359.007 151.791C360.495 157.304 366.302 164.748 366.302 155.926Z" fill="#462723"/>
<path opacity="0.8" d="M363.302 162.926V127.086C363.302 122.491 367.861 121.113 370.141 119.275C372.42 117.437 402.511 109.625 413.909 102.733C425.307 95.8409 425.763 77.9209 417.556 61.8389C410.519 48.0487 407.84 48.4485 396.009 45.0763C391.548 43.8048 386.901 43.0987 382.287 43.5847C332.698 48.8084 289.117 76.0757 282.149 85.7322C274.854 95.8409 277.165 107.5 283.516 120.653C292.298 134.897 321.357 133.519 335.491 132.14C346.797 131.038 353.879 149.448 356.007 158.791C357.495 164.304 363.302 171.748 363.302 162.926Z" stroke="#FF7562" stroke-width="3"/>
<path d="M154.424 190.815C152.912 193.84 152.609 196.078 148.979 198.982" stroke="#FF7562" stroke-width="2.5" stroke-linecap="round"/>
</svg>
