<svg width="45" height="45" viewBox="0 0 45 45" fill="none" xmlns="http://www.w3.org/2000/svg">
<path d="M45 22.5109C45 34.9059 34.9011 45 22.5 45C10.0989 45 0 34.9059 0 22.5109C0 10.0941 10.0989 0 22.5 0C34.9011 0 45 10.0941 45 22.5109Z" fill="#E16723"/>
<path d="M30.75 22.5109C30.75 23.0796 30.571 23.6504 30.2131 24.1075C30.146 24.1972 29.8327 24.5668 29.5866 24.8074L29.4524 24.9386C27.5732 26.9311 22.8974 29.9275 20.5259 30.8876C20.5259 30.9095 19.1165 31.4803 18.4453 31.5H18.3558C17.3267 31.5 16.3647 30.9335 15.8725 30.0149C15.604 29.5097 15.358 28.0444 15.3356 28.0247C15.1342 26.7102 15 24.6981 15 22.4891C15 20.1729 15.1342 18.0711 15.3803 16.7807C15.3803 16.7588 15.6264 15.5778 15.783 15.1841C16.0291 14.6176 16.4766 14.1343 17.0359 13.8281C17.4833 13.6115 17.9531 13.5 18.4453 13.5C18.9599 13.5241 19.9219 13.8499 20.3022 14.003C22.8079 14.9654 27.5955 18.1148 29.43 20.0395C29.7433 20.3457 30.0788 20.7197 30.1683 20.805C30.5486 21.2861 30.75 21.8767 30.75 22.5109Z" fill="white"/>
</svg>
