<svg width="73" height="133" viewBox="0 0 73 133" fill="none" xmlns="http://www.w3.org/2000/svg">
<path d="M16.5194 4.72217C15.007 7.74686 11.0749 14.5222 7.44531 17.4259" stroke="#918A89" stroke-width="2.5" stroke-linecap="round"/>
<path d="M9.2589 3.81494C7.74655 6.83963 7.44408 9.0779 3.81445 11.9816" stroke="#918A89" stroke-width="2.5" stroke-linecap="round"/>
<path d="M26.5 2C23.7778 10.1667 15.0667 27.2259 2 30.1296" stroke="#918A89" stroke-width="2.5" stroke-linecap="round"/>
<mask id="path-4-outside-1_91_1647" maskUnits="userSpaceOnUse" x="5" y="39.1296" width="64" height="88" fill="black">
<rect fill="white" x="5" y="39.1296" width="64" height="88"/>
<path d="M8.912 126.13C14.2027 120.754 19.3227 115.548 24.272 110.514C29.2213 105.479 33.6587 100.572 37.584 95.7936C41.5947 91.015 44.7093 86.407 46.928 81.9696C49.232 77.5323 50.384 73.223 50.384 69.0416C50.384 66.4816 49.9573 64.263 49.104 62.3856C48.336 60.423 47.2267 58.8443 45.776 57.6496C44.3253 56.3696 42.704 55.431 40.912 54.8336C39.12 54.151 37.2 53.8096 35.152 53.8096C32.5067 53.8096 30.2453 54.2363 28.368 55.0896C26.4907 55.943 24.9547 57.0523 23.76 58.4176C22.6507 59.6976 21.7973 61.1056 21.2 62.6416C20.6027 64.1776 20.304 65.7136 20.304 67.2496C20.304 70.0656 20.7307 72.583 21.584 74.8016C22.5227 77.0203 23.76 78.9403 25.296 80.5616L16.976 88.2416C14.8427 86.9616 13.008 85.127 11.472 82.7376C10.0213 80.263 8.912 77.6603 8.144 74.9296C7.376 72.199 6.992 69.767 6.992 67.6336C6.992 62.9403 8.144 58.5883 10.448 54.5776C12.8373 50.4816 16.2933 47.1536 20.816 44.5936C25.424 42.0336 30.9707 40.7536 37.456 40.7536C42.9173 40.7536 47.6533 41.991 51.664 44.4656C55.76 46.9403 58.9173 50.2683 61.136 54.4496C63.44 58.5456 64.592 63.0256 64.592 67.8896C64.592 72.071 63.7813 76.167 62.16 80.1776C60.5387 84.1883 58.3627 88.1563 55.632 92.0816C52.9867 95.9216 50 99.7616 46.672 103.602C43.4293 107.356 40.1867 111.154 36.944 114.994L30.8 112.946H67.024V126.13H8.912Z"/>
</mask>
<path d="M8.912 126.13C14.2027 120.754 19.3227 115.548 24.272 110.514C29.2213 105.479 33.6587 100.572 37.584 95.7936C41.5947 91.015 44.7093 86.407 46.928 81.9696C49.232 77.5323 50.384 73.223 50.384 69.0416C50.384 66.4816 49.9573 64.263 49.104 62.3856C48.336 60.423 47.2267 58.8443 45.776 57.6496C44.3253 56.3696 42.704 55.431 40.912 54.8336C39.12 54.151 37.2 53.8096 35.152 53.8096C32.5067 53.8096 30.2453 54.2363 28.368 55.0896C26.4907 55.943 24.9547 57.0523 23.76 58.4176C22.6507 59.6976 21.7973 61.1056 21.2 62.6416C20.6027 64.1776 20.304 65.7136 20.304 67.2496C20.304 70.0656 20.7307 72.583 21.584 74.8016C22.5227 77.0203 23.76 78.9403 25.296 80.5616L16.976 88.2416C14.8427 86.9616 13.008 85.127 11.472 82.7376C10.0213 80.263 8.912 77.6603 8.144 74.9296C7.376 72.199 6.992 69.767 6.992 67.6336C6.992 62.9403 8.144 58.5883 10.448 54.5776C12.8373 50.4816 16.2933 47.1536 20.816 44.5936C25.424 42.0336 30.9707 40.7536 37.456 40.7536C42.9173 40.7536 47.6533 41.991 51.664 44.4656C55.76 46.9403 58.9173 50.2683 61.136 54.4496C63.44 58.5456 64.592 63.0256 64.592 67.8896C64.592 72.071 63.7813 76.167 62.16 80.1776C60.5387 84.1883 58.3627 88.1563 55.632 92.0816C52.9867 95.9216 50 99.7616 46.672 103.602C43.4293 107.356 40.1867 111.154 36.944 114.994L30.8 112.946H67.024V126.13H8.912Z" fill="#650C01"/>
<path d="M8.912 126.13L8.19926 125.428L6.52484 127.13H8.912V126.13ZM24.272 110.514L24.9851 111.215L24.272 110.514ZM37.584 95.7936L36.818 95.1507L36.8113 95.1589L37.584 95.7936ZM46.928 81.9696L46.0405 81.5088L46.037 81.5156L46.0336 81.5224L46.928 81.9696ZM49.104 62.3856L48.1728 62.75L48.1825 62.775L48.1936 62.7994L49.104 62.3856ZM45.776 57.6496L45.1144 58.3995L45.1271 58.4107L45.1403 58.4216L45.776 57.6496ZM40.912 54.8336L40.556 55.7681L40.5757 55.7756L40.5958 55.7823L40.912 54.8336ZM23.76 58.4176L23.0074 57.7591L23.0043 57.7627L23.76 58.4176ZM21.2 62.6416L20.268 62.2792L21.2 62.6416ZM21.584 74.8016L20.6507 75.1606L20.6566 75.176L20.663 75.1913L21.584 74.8016ZM25.296 80.5616L25.9743 81.2964L26.7187 80.6093L26.022 79.8739L25.296 80.5616ZM16.976 88.2416L16.4615 89.0991L17.1038 89.4845L17.6543 88.9764L16.976 88.2416ZM11.472 82.7376L10.6093 83.2434L10.6197 83.2611L10.6308 83.2784L11.472 82.7376ZM8.144 74.9296L7.18135 75.2004L8.144 74.9296ZM10.448 54.5776L9.5842 54.0738L9.58089 54.0795L10.448 54.5776ZM20.816 44.5936L20.3303 43.7195L20.3234 43.7234L20.816 44.5936ZM51.664 44.4656L51.1389 45.3167L51.1469 45.3216L51.664 44.4656ZM61.136 54.4496L60.2527 54.9184L60.2584 54.9292L60.2644 54.9399L61.136 54.4496ZM62.16 80.1776L61.2329 79.8028L62.16 80.1776ZM55.632 92.0816L54.8111 91.5106L54.8085 91.5143L55.632 92.0816ZM46.672 103.602L45.9163 102.947L45.9152 102.948L46.672 103.602ZM36.944 114.994L36.6278 115.942L37.2708 116.157L37.708 115.639L36.944 114.994ZM30.8 112.946V111.946L30.4838 113.894L30.8 112.946ZM67.024 112.946H68.024V111.946H67.024V112.946ZM67.024 126.13V127.13H68.024V126.13H67.024ZM9.62474 126.831C14.9155 121.455 20.0357 116.249 24.9851 111.215L23.5589 109.813C18.6097 114.847 13.4898 120.052 8.19926 125.428L9.62474 126.831ZM24.9851 111.215C29.9524 106.162 34.4101 101.233 38.3567 96.4284L36.8113 95.1589C32.9072 99.9116 28.4902 104.796 23.5589 109.813L24.9851 111.215ZM38.35 96.4365C42.3987 91.6125 45.5611 86.9394 47.8224 82.4168L46.0336 81.5224C43.8575 85.8745 40.7906 90.4175 36.818 95.1508L38.35 96.4365ZM47.8155 82.4305C50.179 77.8784 51.384 73.4119 51.384 69.0416H49.384C49.384 73.034 48.285 77.1862 46.0405 81.5088L47.8155 82.4305ZM51.384 69.0416C51.384 66.3724 50.9392 64.0065 50.0144 61.9718L48.1936 62.7994C48.9754 64.5194 49.384 66.5909 49.384 69.0416H51.384ZM50.0352 62.0212C49.2128 59.9194 48.0094 58.1935 46.4117 56.8777L45.1403 58.4216C46.4439 59.4951 47.4592 60.9265 48.1728 62.75L50.0352 62.0212ZM46.4376 56.8998C44.8888 55.5332 43.1507 54.5258 41.2282 53.885L40.5958 55.7823C42.2573 56.3362 43.7618 57.2061 45.1144 58.3995L46.4376 56.8998ZM41.268 53.8991C39.3548 53.1703 37.3133 52.8096 35.152 52.8096V54.8096C37.0867 54.8096 38.8852 55.1316 40.556 55.7681L41.268 53.8991ZM35.152 52.8096C32.4028 52.8096 29.9927 53.2527 27.9542 54.1793L28.7818 56C30.4979 55.2199 32.6106 54.8096 35.152 54.8096V52.8096ZM27.9542 54.1793C25.965 55.0834 24.3078 56.273 23.0074 57.7591L24.5126 59.0761C25.6015 57.8316 27.0163 56.8025 28.7818 56L27.9542 54.1793ZM23.0043 57.7627C21.822 59.1269 20.9081 60.6333 20.268 62.2792L22.132 63.0041C22.6866 61.5779 23.4793 60.2683 24.5157 59.0726L23.0043 57.7627ZM20.268 62.2792C19.629 63.9223 19.304 65.5809 19.304 67.2496H21.304C21.304 65.8464 21.5763 64.433 22.132 63.0041L20.268 62.2792ZM19.304 67.2496C19.304 70.1662 19.7459 72.8084 20.6507 75.1606L22.5173 74.4427C21.7154 72.3576 21.304 69.9651 21.304 67.2496H19.304ZM20.663 75.1913C21.6447 77.5115 22.9455 79.5345 24.57 81.2494L26.022 79.8739C24.5745 78.3461 23.4007 76.5291 22.505 74.412L20.663 75.1913ZM24.6177 79.8268L16.2977 87.5068L17.6543 88.9764L25.9743 81.2964L24.6177 79.8268ZM17.4905 87.3841C15.5065 86.1937 13.7779 84.4753 12.3132 82.1969L10.6308 83.2784C12.2381 85.7786 14.1788 87.7295 16.4615 89.0991L17.4905 87.3841ZM12.3347 82.2319C10.9268 79.8301 9.85125 77.3064 9.10665 74.6589L7.18135 75.2004C7.97275 78.0143 9.1159 80.6958 10.6093 83.2434L12.3347 82.2319ZM9.10665 74.6589C8.35582 71.9893 7.992 69.651 7.992 67.6336H5.992C5.992 69.8829 6.39618 72.4087 7.18135 75.2004L9.10665 74.6589ZM7.992 67.6336C7.992 63.1124 9.09951 58.9325 11.3151 55.0758L9.58089 54.0795C7.18849 58.2441 5.992 62.7682 5.992 67.6336H7.992ZM11.3118 55.0815C13.6036 51.1527 16.9247 47.9453 21.3086 45.4639L20.3234 43.7234C15.662 46.3619 12.0711 49.8105 9.58422 54.0738L11.3118 55.0815ZM21.3016 45.4678C25.7305 43.0073 31.1019 41.7536 37.456 41.7536V39.7536C30.8395 39.7536 25.1175 41.06 20.3304 43.7195L21.3016 45.4678ZM37.456 41.7536C42.7619 41.7536 47.3098 42.954 51.1389 45.3167L52.1891 43.6146C47.9969 41.0279 43.0728 39.7536 37.456 39.7536V41.7536ZM51.1469 45.3216C55.0898 47.7037 58.1198 50.8987 60.2527 54.9184L62.0194 53.9809C59.7149 49.6379 56.4302 46.1769 52.1811 43.6097L51.1469 45.3216ZM60.2644 54.9399C62.4812 58.8809 63.592 63.1911 63.592 67.8896H65.592C65.592 62.8602 64.3988 58.2104 62.0076 53.9594L60.2644 54.9399ZM63.592 67.8896C63.592 71.9381 62.8078 75.9071 61.2329 79.8028L63.0871 80.5524C64.7549 76.4269 65.592 72.2039 65.592 67.8896H63.592ZM61.2329 79.8028C59.6423 83.7375 57.5036 87.6402 54.8111 91.5106L56.4529 92.6527C59.2218 88.6725 61.4351 84.6391 63.0871 80.5524L61.2329 79.8028ZM54.8085 91.5143C52.1859 95.3213 49.2222 99.1322 45.9163 102.947L47.4277 104.257C50.7778 100.391 53.7874 96.5219 56.4555 92.6489L54.8085 91.5143ZM45.9152 102.948C42.6701 106.706 39.425 110.506 36.18 114.348L37.708 115.639C40.9483 111.802 44.1886 108.007 47.4288 104.255L45.9152 102.948ZM37.2602 114.045L31.1162 111.997L30.4838 113.894L36.6278 115.942L37.2602 114.045ZM30.8 113.946H67.024V111.946H30.8V113.946ZM66.024 112.946V126.13H68.024V112.946H66.024ZM67.024 125.13H8.912V127.13H67.024V125.13Z" fill="#FFD2CC" mask="url(#path-4-outside-1_91_1647)"/>
</svg>
